<?xml version="1.0" encoding="UTF-8" standalone="no"?><!DOCTYPE svg PUBLIC "-//W3C//DTD SVG 1.1//EN" "http://www.w3.org/Graphics/SVG/1.1/DTD/svg11.dtd"><svg width="100%" height="100%" viewBox="0 0 220 146" version="1.1" xmlns="http://www.w3.org/2000/svg" xmlns:xlink="http://www.w3.org/1999/xlink" xml:space="preserve" xmlns:serif="http://www.serif.com/" style="fill-rule:evenodd;clip-rule:evenodd;stroke-linejoin:round;stroke-miterlimit:1.41421;"><path d="M161.322,131.026c35.69,0 57.842,-17.23 57.842,-57.844c0,-40.614 -22.152,-59.074 -57.842,-59.074c-35.691,0 -57.843,18.46 -57.843,59.074c0,40.614 22.152,57.844 57.843,57.844Z" style="fill:#f00;fill-rule:nonzero;"/><path d="M138.839,137.057c-6.112,1.244 -12.751,1.847 -19.863,1.847c-40.5,0 -65.638,-19.552 -65.638,-65.639c0,-46.087 25.138,-67.035 65.638,-67.035c7.112,0 13.751,0.646 19.863,1.961c-28.69,6.172 -45.774,27.081 -45.774,65.074c0,37.993 17.084,57.953 45.774,63.792Z" style="fill-rule:nonzero;"/><path d="M92.436,143.084c-6.611,1.36 -13.792,2.019 -21.486,2.019c-43.806,0 -70.996,-21.379 -70.996,-71.773c0,-50.394 27.19,-73.3 70.996,-73.3c7.694,0 14.875,0.707 21.486,2.145c-31.033,6.749 -49.511,29.612 -49.511,71.155c0,41.544 18.478,63.369 49.511,69.754Z" style="fill:#fff;fill-rule:nonzero;"/></svg>